<?xml version="1.0" encoding="utf-8"?><!-- Uploaded to: SVG Repo, www.svgrepo.com, Generator: SVG Repo Mixer Tools -->
<svg version="1.1" id="Uploaded to svgrepo.com" xmlns="http://www.w3.org/2000/svg" xmlns:xlink="http://www.w3.org/1999/xlink" 
	 width="800px" height="800px" viewBox="0 0 32 32" xml:space="preserve">
<style type="text/css">
	.feather_een{fill:#111918;}
	.st0{fill:#0B1719;}
</style>
<path class="feather_een" d="M25,9.5c0,0.276,0.224,0.5,0.5,0.5h0.793l-2.283,2.283c-0.427-0.251-0.946-0.363-1.507-0.219
	c-0.567,0.146-1.037,0.554-1.296,1.079c-0.226,0.457-0.245,0.885-0.161,1.275l-2.545,1.272c-0.401-0.46-1.002-0.741-1.674-0.683
	c-0.737,0.063-1.374,0.56-1.667,1.239c-0.181,0.418-0.191,0.811-0.114,1.172l-2.544,1.272C12.134,18.271,11.601,18,11,18
	c-1.044,0-1.892,0.803-1.982,1.824l-2.19,0.365c-0.37-0.832-1.29-1.364-2.294-1.136c-0.748,0.17-1.355,0.802-1.497,1.556
	C2.794,21.898,3.784,23.014,5.023,23c1.036-0.012,1.869-0.813,1.959-1.823l2.193-0.365C9.482,21.5,10.164,21.985,10.963,22
	c0.616,0.011,1.181-0.307,1.566-0.788c0.496-0.621,0.529-1.161,0.421-1.649l2.541-1.265c0.361,0.42,0.888,0.693,1.483,0.702
	c0.778,0.011,1.461-0.469,1.817-1.161c0.236-0.458,0.246-0.879,0.162-1.265l2.545-1.267c0.446,0.512,1.139,0.804,1.903,0.654
	c0.737-0.145,1.35-0.736,1.536-1.463c0.145-0.567,0.031-1.094-0.228-1.523L27,10.7v0.8c0,0.276,0.224,0.5,0.5,0.5s0.5-0.224,0.5-0.5
	v-2C28,9.224,27.776,9,27.5,9h-2C25.224,9,25,9.224,25,9.5z M5.012,22C4.46,22.006,4.006,21.563,4,21.012
	C3.994,20.46,4.437,20.006,4.988,20C5.54,19.994,5.994,20.437,6,20.988C6.006,21.54,5.563,21.993,5.012,22z M11,21
	c-0.551,0-1-0.449-1-1s0.449-1,1-1s1,0.449,1,1S11.551,21,11,21z M17,18c-0.551,0-1-0.449-1-1s0.449-1,1-1s1,0.449,1,1
	S17.551,18,17,18z M23,15c-0.551,0-1-0.449-1-1s0.449-1,1-1s1,0.449,1,1S23.551,15,23,15z M28,5H4C2.343,5,1,6.343,1,8v16
	c0,1.657,1.343,3,3,3h24c1.657,0,3-1.343,3-3V8C31,6.343,29.657,5,28,5z M30,24c0,1.103-0.897,2-2,2H4c-1.103,0-2-0.897-2-2V8
	c0-1.103,0.897-2,2-2h24c1.103,0,2,0.897,2,2V24z"/>
</svg>